<svg width="20" height="16" viewBox="0 0 20 16" fill="none" xmlns="http://www.w3.org/2000/svg">
<path d="M18.8281 12.2023V10.3438C18.8281 8.41453 18.2061 6.58082 17.0292 5.0409C15.9845 3.67398 14.5402 2.62566 12.9275 2.05484C12.8826 1.12527 12.1124 0.382812 11.1719 0.382812H8.82812C7.88762 0.382812 7.11738 1.12527 7.0725 2.05484C5.45984 2.62566 4.01547 3.67398 2.97082 5.0409C1.79395 6.58082 1.17188 8.41453 1.17188 10.3438V12.2023C0.489883 12.4442 0 13.0955 0 13.8594C0 14.8286 0.788555 15.6172 1.75781 15.6172H18.2422C19.2114 15.6172 20 14.8286 20 13.8594C20 13.0955 19.5101 12.4442 18.8281 12.2023ZM2.34375 10.3438C2.34375 8.23082 3.24633 6.25281 4.72656 4.8416V6.82812C4.72656 7.15172 4.98891 7.41406 5.3125 7.41406C5.63609 7.41406 5.89844 7.15172 5.89844 6.82812V3.92254C6.26766 3.68684 6.65926 3.48121 7.07031 3.31008V8C7.07031 8.32359 7.33266 8.58594 7.65625 8.58594C7.97984 8.58594 8.24219 8.32359 8.24219 8V2.48953C8.24223 2.48793 8.24219 2.48633 8.24219 2.48473V2.14062C8.24219 1.81754 8.50504 1.55469 8.82812 1.55469H11.1719C11.495 1.55469 11.7578 1.81754 11.7578 2.14062V2.48457C11.7578 2.48625 11.7578 2.48789 11.7578 2.48957V8C11.7578 8.32359 12.0202 8.58594 12.3438 8.58594C12.6673 8.58594 12.9297 8.32359 12.9297 8V3.31008C13.3407 3.48125 13.7323 3.68688 14.1016 3.92254V6.82812C14.1016 7.15172 14.3639 7.41406 14.6875 7.41406C15.0111 7.41406 15.2734 7.15172 15.2734 6.82812V4.8416C16.7537 6.25281 17.6562 8.23082 17.6562 10.3438V12.1016H2.34375V10.3438ZM18.2422 14.4453H1.75781C1.43473 14.4453 1.17188 14.1825 1.17188 13.8594C1.17188 13.5363 1.43473 13.2734 1.75781 13.2734H18.2422C18.5653 13.2734 18.8281 13.5363 18.8281 13.8594C18.8281 14.1825 18.5653 14.4453 18.2422 14.4453Z" fill="white"/>
</svg>
