<svg width="18" height="18" viewBox="0 0 18 18" fill="none" xmlns="http://www.w3.org/2000/svg">
<path fill-rule="evenodd" clip-rule="evenodd" d="M14.6572 3.34504C13.1455 1.83415 11.1378 0.999985 8.99944 0.999985C6.86103 0.999985 4.85334 1.83416 3.34172 3.34504C0.42571 6.25962 0.214542 10.9162 2.81213 14.072C2.4535 14.8057 2.03117 15.2948 1.55187 15.5293C1.26029 15.6734 1.09604 15.9883 1.14298 16.3099C1.19324 16.6348 1.44127 16.8861 1.7664 16.9363C1.94404 16.9631 2.13508 16.9799 2.33283 16.9799C3.31489 16.9799 4.34723 16.6415 5.20862 16.0486C6.36832 16.6717 7.67213 17 8.99943 17C11.1378 17 13.1455 16.1692 14.6571 14.6583C16.1688 13.1474 17 11.1373 17 9.00335C17 6.86935 16.1688 4.85594 14.6571 3.34505L14.6572 3.34504Z" stroke="white" stroke-width="1.5" stroke-miterlimit="22.9256" stroke-linecap="round" stroke-linejoin="round"/>
<path d="M5.2738 8.99998H12.7266" stroke="white" stroke-miterlimit="22.9256" stroke-linecap="round"/>
<path d="M5.2738 6.81239H12.7266" stroke="white" stroke-miterlimit="22.9256" stroke-linecap="round"/>
<path d="M5.2738 11.1876H12.7266" stroke="white" stroke-miterlimit="22.9256" stroke-linecap="round"/>
</svg>
